<?xml version="1.0" encoding="UTF-8"?>
<svg width="100px" height="100px" viewBox="0 0 100 100" version="1.1" xmlns="http://www.w3.org/2000/svg" xmlns:xlink="http://www.w3.org/1999/xlink">
    <!-- Generator: Sketch 40.1 (33804) - http://www.bohemiancoding.com/sketch -->
    <title>student</title>
    <desc>Created with Sketch.</desc>
    <defs></defs>
    <g id="Symbols" stroke="none" stroke-width="1" fill="none" fill-rule="evenodd">
        <g id="student" fill="#FFFFFF">
            <path d="M97.6031934,41.4281434 C97.5598876,40.2496806 97.5677304,39.0705358 97.5083981,37.892755 C97.477027,37.2677196 97.4964634,36.4206995 97.1602469,35.832491 C97.0787502,35.2367808 96.731963,34.6659629 96.0513461,34.3812359 C79.7714418,27.5767726 64.9918953,17.6536112 49.5453715,9.23148953 C49.0202463,8.94539859 48.3461083,8.90106984 47.824393,9.23148953 C41.4601483,13.260973 35.4072278,17.6955531 28.8267952,21.3932529 C24.4232453,23.8674792 20.0647061,26.3608009 15.7467448,28.985063 C11.6095083,31.4995261 7.31302939,33.6948223 3.0925913,36.0575447 C3.02609818,36.0882338 2.96267396,36.1247198 2.9009547,36.1642747 C2.88254122,36.1748454 2.86378675,36.1850751 2.84537327,36.1953048 C2.09246648,36.6181329 1.90219384,37.3290979 2.06280032,37.9715238 C2.074053,38.0530205 2.09110252,38.1338352 2.11497185,38.2136269 C2.16577941,39.5881592 2.08053182,40.981105 2.06416428,42.3491584 C2.05598051,43.0226145 1.90867266,43.9013467 2.09007955,44.5597991 C2.24284324,45.1149315 3.28593285,45.4248918 3.72853838,45.631191 C8.18971569,47.7125963 12.5117689,50.0770237 16.6800355,52.691397 C16.4202008,52.9631664 16.2551614,53.3430297 16.2609583,53.8333739 C16.307333,57.6340528 16.0434064,61.4279119 16.0509082,65.2279088 C16.059092,69.5803102 16.6476414,73.8907697 17.796097,78.0876795 C18.0620695,79.0598431 18.3628231,81.0409973 19.1426681,81.8208423 C19.8669317,82.5451059 21.0876773,82.9941902 21.9797081,83.4835114 C22.9576686,84.0192074 23.9482457,84.5320569 24.9446196,85.0329718 C28.7705318,86.9564986 32.7764869,88.5352841 36.9430485,89.5412058 C41.1675785,90.560767 45.4708773,90.7776369 49.7983863,90.6651101 C54.3560639,90.5461045 58.9106726,90.2109109 63.3953782,89.3621858 C67.6400266,88.5588124 71.7571446,87.0952817 75.507698,84.9467012 C78.7266473,83.1033072 82.2749933,80.7242172 84.8532217,78.0457377 C85.1931891,77.6924716 85.336746,77.2982867 85.339133,76.9160365 C85.3435658,76.8908032 85.3493627,76.8662519 85.3527726,76.8403366 C85.8229983,73.2810789 85.9846278,69.6508952 86.01293,66.0636763 C86.04737,61.7460559 85.372891,57.4707184 84.9343774,53.1868561 C84.8675433,52.5318135 84.5077984,52.0745454 84.0460974,51.8136878 C84.4453971,51.5337346 84.8443559,51.2524176 85.2405867,50.9676906 C89.3072382,48.041993 93.2958028,45.0095655 97.2860724,41.9815708 C97.2884593,41.9798658 97.2901642,41.9774789 97.2925512,41.9757739 C97.4780499,41.8826836 97.6130821,41.7019587 97.6031934,41.4281434 L97.6031934,41.4281434 Z M85.8738059,36.1710945 C85.8731239,36.1707535 85.8724419,36.1704125 85.87176,36.1704125 C85.5242908,36.082778 85.1775035,36.0081011 84.8300343,35.9283093 C85.6068104,35.3288482 86.3546024,34.6952881 87.0461309,33.9965988 C87.3666618,34.1520904 87.6882158,34.307241 88.0097697,34.4606867 C87.2936899,35.0253668 86.5820429,35.5958437 85.8738059,36.1710945 L85.8738059,36.1710945 Z M78.1708329,29.4310784 C78.415664,29.5633827 78.6604951,29.695346 78.9053262,29.8273092 C77.1768459,31.6884348 74.9668872,33.0261401 72.9199219,34.521724 C72.3528549,34.5128582 71.7854468,34.5131992 71.2183798,34.5186551 C73.378554,32.8304116 75.4776908,31.0719242 77.9866981,29.9166487 C78.2127748,29.8126466 78.2461918,29.6056655 78.1708329,29.4310784 L78.1708329,29.4310784 Z M79.6793744,30.2443405 C80.0684445,30.4516626 80.4588785,30.6552339 80.8489715,30.8605101 C78.9230577,31.7961878 77.3210849,33.2358492 75.7020625,34.6311819 C75.2427484,34.6039027 74.7837754,34.5786694 74.3244613,34.5612789 C76.2080922,33.2392591 78.1479866,31.9598632 79.6793744,30.2443405 L79.6793744,30.2443405 Z M81.5585725,31.4616762 C81.6383642,31.4255312 81.6922407,31.3757466 81.7280447,31.3194832 C82.0100438,31.4664501 82.2913608,31.6158038 82.5740419,31.7614067 C81.2394055,32.7966536 79.9044281,33.8322414 78.5694507,34.8674882 C78.0156823,34.8067919 77.4619139,34.7570073 76.9081455,34.7123376 C78.3505349,33.4697686 79.8137246,32.2510689 81.5585725,31.4616762 L81.5585725,31.4616762 Z M83.4053765,32.1876447 C83.7992204,32.3888291 84.1957922,32.5855805 84.591341,32.7843779 C83.635204,33.7105078 82.5771108,34.5084253 81.4883285,35.2701979 C80.9123957,35.1760845 80.3361219,35.090155 79.7605301,35.0147961 C80.9751379,34.0722986 82.1904277,33.1298012 83.4053765,32.1876447 L83.4053765,32.1876447 Z M85.3940324,33.1884515 C85.6719396,33.3265526 85.9498468,33.4656767 86.2284359,33.6027549 C85.4516598,34.3583896 84.6107775,35.0390064 83.739547,35.6845012 C83.3815071,35.6101653 83.0238082,35.5423082 82.6661093,35.4758151 C83.6273612,34.7774668 84.5524681,34.0351307 85.3940324,33.1884515 L85.3940324,33.1884515 Z M48.7515458,18.5200678 C50.1785906,17.4350364 51.6185931,16.3673955 53.0947405,15.3481752 C53.1595286,15.3035055 53.2045394,15.248947 53.2352285,15.1906376 C53.5315492,15.3584049 53.8275288,15.5261722 54.1231675,15.6949624 C54.0757698,15.7041692 54.0276902,15.7208777 53.9782466,15.7508848 C51.938783,16.9917489 50.0824313,18.4965395 48.3379245,20.1210177 C48.4480644,19.5716822 48.5865065,19.0370093 48.7515458,18.5200678 L48.7515458,18.5200678 Z M49.5020657,16.1474567 C50.2403099,15.5742518 50.9366123,14.9529673 51.5561918,14.2447303 C51.8586503,14.4145435 52.1600858,14.5850387 52.4622033,14.7555339 C51.407179,15.4883222 50.3692043,16.243957 49.3414592,17.0132313 C49.3898799,16.9105932 49.4335266,16.8045452 49.4846752,16.704294 C49.5879953,16.5027687 49.5767426,16.3090861 49.5020657,16.1474567 L49.5020657,16.1474567 Z M16.9419161,32.2469771 C21.2653333,29.6452204 25.5727239,27.0727888 29.9957103,24.6435733 C36.5215844,21.0597643 42.497782,16.6913363 48.7477949,12.6850402 C48.9165852,12.7777896 49.0846935,12.87088 49.2528017,12.9639704 C48.3682726,13.6766403 47.4943143,14.4029498 46.6097852,15.1152788 C45.9046171,15.6830278 45.1912652,16.240888 44.4615457,16.7772659 C44.1195323,17.0282349 43.458011,17.662818 43.0055167,17.6808905 C42.4578862,17.7027139 42.4554992,18.5551898 43.0055167,18.5333664 C44.1205553,18.4890377 45.3597144,17.1728148 46.1797963,16.5365267 C47.4915863,15.5186704 48.7552967,14.4414817 50.0517422,13.4048709 C50.3006652,13.543313 50.5512931,13.6793682 50.7998751,13.8181513 C48.9046505,15.8934188 46.3271041,17.1905463 44.1045288,18.8767438 C43.6724939,19.2044355 44.096686,19.9450667 44.5348586,19.612601 C45.5844271,18.8163885 46.7124233,18.1040595 47.8134813,17.3593365 C47.6784491,17.7146485 47.5543286,18.0771213 47.4448707,18.4498238 C46.829383,18.9224365 46.2156003,19.3970951 45.6021586,19.8724357 C45.1680778,20.2089932 45.7760637,20.8077724 46.2050296,20.4753067 C46.50817,20.2403644 46.8123335,20.0064449 47.1158149,19.7718436 C46.3516555,23.4555628 46.686508,27.6599743 47.8799744,30.9034749 C48.1623144,31.6707033 49.3984046,31.3392606 49.1129957,30.5635075 C48.1514027,27.9498161 47.7541489,24.6040184 48.1196906,21.5030518 C50.0490143,19.6303325 52.1055273,17.8871897 54.4078945,16.4860601 C54.6240824,16.3544378 54.6482927,16.1276792 54.566796,15.9486593 C54.9971259,16.1945133 55.4271148,16.4403674 55.8567626,16.6872445 C53.6699913,18.4525517 51.2278181,19.861524 48.9905801,21.5603382 C48.5588863,21.8880299 48.9827373,22.6290021 49.42091,22.2961954 C51.7795405,20.5053139 54.3564049,19.0237106 56.6454734,17.1387157 C56.8995113,17.2850006 57.1532081,17.4326495 57.406905,17.5792753 C55.2310453,19.1628347 52.9811907,20.643415 50.8435219,22.2808509 C50.413533,22.6102476 50.8370431,23.3512197 51.2738518,23.0167081 C53.5335951,21.2858409 55.9201869,19.7319477 58.2109603,18.0440452 C58.3780456,18.1408865 58.5458129,18.2373868 58.7132392,18.334569 C56.58921,19.9818936 54.4655218,21.6292182 52.3414927,23.2768838 C51.9077529,23.6134413 52.5157388,24.2122204 52.9443637,23.8797548 C55.1307941,22.1836686 57.3172245,20.4879234 59.5036549,18.7921782 C59.9142073,19.0301894 60.3244188,19.2692237 60.7349712,19.507917 C58.4864806,21.1358051 56.1841134,22.6890164 53.9809745,24.3789647 C53.5509856,24.7083615 53.9748367,25.4496746 54.4113044,25.114822 C56.7358359,23.3317833 59.1705073,21.7004852 61.5359576,19.9733689 C61.8697872,20.1677334 62.2042988,20.3617569 62.5381284,20.5561215 C62.5186919,20.5670331 62.4992555,20.5776039 62.479819,20.5922664 C60.317258,22.2569815 58.0708133,23.8084878 55.9085932,25.4728619 C55.4792863,25.8029406 55.9031373,26.5442537 56.3389231,26.2087192 C58.5014841,24.5440041 60.7482698,22.9928388 62.9101489,21.3281237 C63.0683685,21.2063901 63.1099693,21.0290751 63.0785982,20.8701736 C63.4721011,21.0993192 63.866286,21.3281237 64.2601299,21.5572692 C62.0167541,23.1592421 59.9295519,24.9548975 57.8546254,26.7686254 C57.439981,27.1310982 58.04558,27.7315823 58.4574964,27.3714964 C60.5934602,25.504574 62.7376078,23.6519732 65.0655492,22.02579 C65.4133594,22.2276564 65.7615106,22.4288407 66.1093208,22.630366 C64.4541534,24.832482 61.8905876,26.2540709 59.7341644,27.9010545 C59.3034935,28.2297692 59.7270036,28.9707414 60.1644943,28.6369118 C62.4423101,26.8975198 65.1170387,25.3940931 66.8499519,23.0589909 C67.1684369,23.2434667 67.48624,23.4279425 67.805066,23.6117364 C65.7574187,25.3166883 63.8731058,27.2139589 61.6914493,28.7559174 C61.2464568,29.0703106 61.6716718,29.8099187 62.1217791,29.4917747 C64.4282381,27.8614996 66.4145072,25.8523842 68.5913898,24.0642306 C69.0152409,24.3080387 69.4397739,24.5504829 69.863966,24.7936091 C69.8578282,24.7977009 69.8523723,24.7997469 69.8465755,24.8041798 C67.5943339,26.5381159 65.2582088,28.1595252 63.0059672,29.8941434 C62.5770013,30.224563 63.0005114,30.9655352 63.4362971,30.6300006 C65.6881976,28.8957235 68.0243228,27.2743142 70.2769054,25.540037 C70.4194393,25.4305791 70.466496,25.2761105 70.4518334,25.1301666 C70.8426084,25.3531743 71.2333834,25.576182 71.6244994,25.7981668 C69.4551185,27.4806134 67.2857376,29.16306 65.1166977,30.8455065 C64.682958,31.1820641 65.2909438,31.7808432 65.7195688,31.4483776 C67.9540788,29.7151234 70.1885888,27.9822102 72.4234399,26.2489561 C72.7477217,26.4324089 73.0720036,26.6162027 73.3969674,26.7986326 C71.2899878,28.4357274 69.1942609,30.085439 67.1790076,31.8354017 C66.7629994,32.1965105 67.3689393,32.7966536 67.7818787,32.4382727 C69.8598741,30.6337515 72.0231172,28.9359603 74.1965899,27.2487399 C74.3981152,27.3612667 74.6010045,27.4717476 74.8025298,27.5839334 C73.0290388,29.6503352 70.8784124,31.3385787 68.7329009,33.0036347 C68.2991611,33.3401923 68.9071469,33.9389714 69.3357719,33.6065058 C71.5447076,31.892688 73.7594402,30.15466 75.5619154,28.0036926 C76.2561719,28.3876478 76.9511103,28.770239 77.6480947,29.1490793 C77.6180875,29.1562401 77.5873984,29.1664699 77.5567092,29.1807915 C74.9600674,30.3763038 72.7913685,32.2183339 70.5554945,33.9631817 C70.3324868,34.1370868 70.3863633,34.379872 70.5486747,34.5292258 C65.70968,34.6226571 60.8628426,35.2084786 55.9788372,36.0507249 C55.1672801,36.1908719 55.5123624,37.4228702 56.3184636,37.2837461 C62.3441049,36.2440664 68.3046169,35.6030045 74.2668339,35.8290811 C74.2450105,35.8464716 74.2231872,35.8645441 74.2013638,35.8819346 C73.7700109,36.222584 74.3779968,36.8217042 74.8042348,36.4848057 C75.0483839,36.2918051 75.2894641,36.0936897 75.5288394,35.8935283 C76.0529416,35.9242175 76.5767029,35.9620674 77.1008051,36.0070781 C76.5623813,36.4247913 76.0242984,36.8421636 75.4858746,37.2595358 C75.0521348,37.5960933 75.6601207,38.1948725 76.0887456,37.8624068 C76.8368785,37.2820412 77.5850114,36.7020165 78.3331444,36.1216509 C78.8736141,36.1803012 79.4144249,36.2467944 79.9552357,36.3218123 C79.1811875,36.8479604 78.4095262,37.3778595 77.6648032,37.9435626 C77.2331094,38.2712543 77.6573014,39.0122264 78.0951331,38.6794198 C79.0962809,37.9186703 80.1458493,37.2213449 81.184506,36.5127669 C81.5606184,36.5738042 81.9360489,36.6375694 82.3121613,36.7067904 C81.2390645,37.4545823 80.1519871,38.1866887 79.1140124,38.9771044 C78.6826595,39.3051372 79.1068516,40.0461093 79.5443422,39.7129617 C80.8169184,38.744208 82.1634894,37.8607019 83.4708466,36.9321851 C83.8534378,37.0119768 84.23637,37.1013163 84.6193022,37.1903148 C83.3607067,38.2166959 82.1014292,39.2430769 80.8206693,40.2421788 C80.3872705,40.5801003 80.9955973,41.1788794 81.4235403,40.8450498 C82.8580869,39.7255783 84.2660362,38.5737128 85.6763725,37.4242342 C86.010884,37.4392378 86.2410526,37.1923607 86.3078867,36.9113846 C87.1532019,36.224289 88.0019269,35.5409443 88.8584948,34.8685112 C89.2649554,35.0601478 89.6755078,35.2442826 90.0833323,35.4321683 C87.5586394,37.3904761 85.0339466,39.348443 82.5092537,41.3067508 C82.0755139,41.6433083 82.6834998,42.2420874 83.1121247,41.9096218 C85.7251341,39.8827749 88.3381435,37.856269 90.9511528,35.8297631 C91.4275164,36.046292 91.903198,36.2641849 92.3819485,36.4762809 C89.882148,38.7902417 87.0590885,40.6892172 84.1923823,42.540795 C80.4639933,44.9488692 76.7366273,47.3576253 73.0767775,49.8693605 C72.2897716,50.4091483 71.5082217,50.9557559 70.7283766,51.5047505 C69.1765294,50.882784 67.7600553,49.604411 66.4441733,48.7209049 C64.5649753,47.4592404 62.7549983,46.0993708 60.8815971,44.8302045 C57.5641015,42.5827368 53.9431246,40.7454806 50.9287695,38.0830276 C51.1886042,37.9302639 51.4191137,37.7427192 51.6049534,37.5145966 C52.6702074,36.2082624 52.1133701,34.2274493 50.554703,33.6723169 C48.995013,33.1168436 46.9422508,33.4960249 45.7392367,34.6693728 C45.6417135,34.7212033 45.5554429,34.8091789 45.4944056,34.9435291 C45.4780381,34.9796741 45.4671264,35.0141141 45.4521228,35.0499181 C45.4517818,35.051282 45.4510998,35.052305 45.4507588,35.053328 C44.453021,37.466176 47.2569849,38.8349114 49.5330958,38.5379088 C52.7118083,41.5171419 56.625696,43.5439888 60.2361023,45.9339904 C62.48016,47.4193446 64.6229437,49.0540525 66.8697294,50.5377017 C67.7972232,51.1501205 68.6527681,51.8102779 69.5823079,52.3156256 C63.688971,56.5063975 57.9221415,60.8598219 51.7069096,64.582755 C42.0531306,59.6902248 33.3701512,53.331095 24.2541141,47.5421011 C18.6952887,44.0118276 12.7702396,41.0905629 7.1033203,37.7376044 C10.3993334,35.9378571 13.7185339,34.1872124 16.9419161,32.2469771 L16.9419161,32.2469771 Z M76.607392,56.84466 C76.6629734,56.8722802 76.7277616,56.8886478 76.8044844,56.8869428 C78.6809546,56.846024 80.1884731,55.8404433 81.7041754,54.856004 C81.7324776,55.1086779 81.7614618,55.3616928 81.790105,55.6150487 C81.6898538,55.6102748 81.5848287,55.639941 81.4900334,55.7214377 C79.4577307,57.4611706 76.6336482,58.2212382 73.9766511,58.6502041 C74.8485635,58.0401723 75.7262728,57.4396882 76.607392,56.84466 L76.607392,56.84466 Z M78.4330545,78.8675245 C77.2368603,79.4134501 75.9608742,79.8386651 74.654199,80.1591961 C74.8659541,79.8257075 75.0582726,79.4864221 75.2332007,79.1413398 C77.7350472,78.5118715 80.1284588,77.3644389 82.0700581,75.8020209 C82.0615333,75.8773798 82.0513036,75.9520566 82.0424379,76.0274155 C80.9417209,77.0885776 79.6926731,77.9922022 78.4330545,78.8675245 L78.4330545,78.8675245 Z M82.5239163,69.9277794 C80.9253533,70.9466587 78.5510372,71.3848313 76.7795921,71.291059 C76.7720903,70.8504994 76.7543588,70.4099398 76.7274206,69.9697212 C78.7552905,69.8865195 80.688365,69.2618251 82.570291,68.5314237 C82.5583563,68.9965346 82.5430117,69.4623275 82.5239163,69.9277794 L82.5239163,69.9277794 Z M76.2319616,76.4775228 C78.3979325,76.3571532 80.4377371,75.4119279 82.2361204,74.237216 C82.2245267,74.3630414 82.2102051,74.4881849 82.1975885,74.6140103 C82.1518958,74.6324238 82.106885,74.6576571 82.0642612,74.695848 C80.3023639,76.2712237 78.0641029,77.4435486 75.6921738,78.1323492 C75.9093847,77.5915385 76.0860177,77.038793 76.2319616,76.4775228 L76.2319616,76.4775228 Z M82.3142072,73.3298405 C82.215661,73.2967645 82.1014292,73.3066532 81.9844695,73.384399 C80.3218003,74.4932998 78.4429433,75.4385251 76.430418,75.6103843 C76.536807,75.0763933 76.6183037,74.5362645 76.6745671,73.9910209 C78.5725196,74.1233252 80.7446284,73.5514843 82.3810413,72.4688398 C82.3605819,72.7562947 82.3377355,73.0434086 82.3142072,73.3298405 L82.3142072,73.3298405 Z M82.4536723,71.3640309 C80.9543375,72.6004621 78.6802726,73.2555046 76.7431062,73.1446827 C76.7635656,72.8118761 76.7741363,72.4780465 76.7792511,72.143535 C78.5558111,72.2400352 80.7698617,71.8390305 82.4754957,70.9313141 C82.4679939,71.075553 82.461856,71.219792 82.4536723,71.3640309 L82.4536723,71.3640309 Z M82.5893864,67.6141596 C80.6835911,68.3646794 78.7222144,69.0452963 76.6609275,69.1206551 C76.6401271,68.9314055 76.6135298,68.7438607 76.5835227,68.556998 C78.70005,68.2177126 80.7637239,67.5872213 82.5999571,66.500144 C82.5985932,66.8708005 82.5955243,67.2421391 82.5893864,67.6141596 L82.5893864,67.6141596 Z M72.1574674,62.3315364 C72.3941147,62.310054 72.6648611,62.3059621 72.8244446,62.3762062 C73.0181271,62.4617947 73.0989418,62.5770495 73.1320179,62.6616151 C73.2834176,63.0482982 73.1920322,63.4677164 72.9598178,63.8479207 C72.881049,63.977156 72.9233318,63.9123679 72.8200117,64.0180749 C72.7572695,64.0821811 72.668271,64.1326477 72.7071439,64.1162801 C72.5032316,64.2022097 72.5063005,64.1844782 72.3003423,64.0596757 C72.0244811,63.8929314 71.9044525,63.6163882 71.8819471,63.304723 C71.8659206,63.0841022 71.9017246,62.451565 72.1574674,62.3315364 L72.1574674,62.3315364 Z M74.3200284,64.5582037 C74.2132984,64.5653645 74.1277099,64.6042374 74.0622397,64.6611828 C74.0346195,64.6512941 74.0087042,64.6386774 73.980402,64.6291297 C74.2729718,64.2298299 74.4315323,63.7275511 74.4615394,63.2273182 C77.1509307,62.9378173 79.9814919,62.2936865 82.3530801,60.9379087 C82.3783134,61.2277505 82.4004778,61.5175923 82.4226421,61.8074342 C80.0657165,63.3667832 77.1192186,64.3754328 74.3200284,64.5582037 L74.3200284,64.5582037 Z M82.2657866,59.9981392 C79.9405731,61.4200691 77.0742078,62.098299 74.3865216,62.382685 C74.2828605,62.0004347 74.0680365,61.7044551 73.7863785,61.4896311 C76.6404681,61.0221333 79.7417757,60.4127835 82.1368922,58.7327238 C82.1819029,59.1541879 82.2248677,59.5759931 82.2657866,59.9981392 L82.2657866,59.9981392 Z M70.4780897,61.2417311 C70.4866144,61.2400262 70.4947982,61.2403672 70.503664,61.2379802 C70.857953,61.1513687 71.2061042,61.0562323 71.5491405,60.9447285 C71.5552783,61.0388418 71.5580063,61.1332962 71.5624391,61.2277505 C71.3476152,61.3593728 71.1699592,61.529527 71.0284482,61.7259375 C70.538786,62.0031627 70.0030901,62.1177354 69.4401149,62.1474016 C69.3777137,62.1508115 69.3238372,62.1658151 69.2757576,62.1876385 C69.6757393,61.8701764 70.076403,61.5544193 70.4780897,61.2417311 L70.4780897,61.2417311 Z M72.3671765,65.7455322 C75.2338827,65.4870615 75.3863054,68.5106233 75.4892845,70.6650006 C75.6014703,73.0052177 75.3934662,75.3328181 74.5713384,77.4725328 C74.4018661,76.0727672 73.9251616,74.7071007 73.2840996,73.4144061 C73.0031235,72.8480211 72.0575572,73.1126297 72.0926792,73.7369831 C72.136326,74.5117132 72.0159564,75.2516624 71.8642156,75.9888836 C71.1474538,74.4305575 70.5398089,72.8333585 70.2073433,71.1342034 C69.9430758,69.7876323 70.2762234,65.6630125 72.3671765,65.7455322 L72.3671765,65.7455322 Z M82.5938193,65.5010421 C80.7262149,66.6979184 78.6059367,67.3693285 76.4120045,67.7266864 C76.3345997,67.4252509 76.2404863,67.1350681 76.1293235,66.8578429 C78.3733812,66.5052588 80.5543558,65.8474884 82.5829076,64.8425897 C82.5887045,65.0618465 82.5914324,65.2814443 82.5938193,65.5010421 L82.5938193,65.5010421 Z M75.7300237,66.0640172 C75.5612335,65.7929299 75.3675509,65.5467348 75.1442022,65.3329338 C77.6951513,65.0355902 80.3102067,64.1350346 82.4935681,62.772096 C82.5170965,63.1485494 82.533123,63.5253438 82.5498316,63.9021382 C80.4193236,65.0106979 78.1128646,65.7066593 75.7300237,66.0640172 L75.7300237,66.0640172 Z M73.022219,60.7547968 C72.9345845,60.7687774 72.8691143,60.8035585 72.8196707,60.8492512 C72.7903455,60.4554073 72.7449938,60.0608814 72.6904353,59.6663555 C72.7313542,59.6741983 72.7756829,59.6776082 72.8261495,59.6711294 C75.9530314,59.2527342 79.3796439,58.5202868 81.8886512,56.4873021 C81.9370718,56.9097892 81.9844695,57.3326173 82.0315262,57.7557863 C79.5545719,59.7171631 76.0495317,60.2675216 73.022219,60.7547968 L73.022219,60.7547968 Z M52.437652,71.8049315 C52.33024,70.6087372 52.1600858,69.4193627 52.0083451,68.2276013 C52.2125983,68.1965712 52.4240124,68.1249632 52.6378133,67.9994787 C58.9846675,64.2779096 64.8565221,59.8798155 70.8276048,55.6106158 C70.9479744,56.7331562 71.1580245,57.8522866 71.3261328,58.975168 C65.2224048,63.5038614 59.6172047,69.1366817 52.437652,71.8049315 L52.437652,71.8049315 Z M46.5773911,35.6432414 C47.291766,34.9244336 48.3386065,34.6836944 49.3281606,34.7143835 C50.447973,34.7495056 51.2349789,35.5030943 50.6706398,36.6317725 C50.0473093,37.8780924 45.8943873,37.3441014 46.5773911,35.6432414 L46.5773911,35.6432414 Z M3.41516821,44.0483136 C3.36981649,44.0234213 3.33503547,44.0104636 3.3057103,44.0029618 C3.32310081,43.9429475 3.33537646,43.8467882 3.33435349,43.6967525 C3.33162557,43.2476681 3.33810438,42.7979018 3.34287825,42.3488174 C3.35276697,41.4001822 3.39743671,40.4402942 3.40766642,39.4831342 C9.57925154,43.3114333 16.1187653,46.5201529 22.2961472,50.3392453 C31.7893198,56.2087129 40.654047,62.8965575 50.6859843,67.882178 C50.8339742,69.0824642 51.0078793,70.2793405 51.1272259,71.4820136 C46.9814647,68.6384947 42.0343761,66.8759154 37.6260523,64.5135339 C34.8272032,63.0135172 32.0344919,61.5077036 29.3362349,59.8310539 C26.7498227,58.2232842 24.3673229,56.3253316 21.8740011,54.5821888 C21.0583521,54.0120528 20.2321324,53.4579434 19.4014798,52.9113358 C19.1576717,52.5457941 18.7743985,52.3180125 18.3570262,52.2286731 C14.5761247,49.8015035 10.6506433,47.6045024 6.62388781,45.6083446 C5.5593158,45.0808325 4.45689386,44.6181085 3.41516821,44.0483136 L3.41516821,44.0483136 Z M70.0920886,83.8500761 C64.7767303,86.0760614 58.9713689,86.801689 53.2631897,87.118469 C47.504885,87.438318 41.8863863,87.3540934 36.2839141,85.8537357 C31.1547366,84.4802264 26.387009,82.0759031 21.7853436,79.4697135 C20.5727818,75.4381841 19.6909806,71.4387078 19.5034359,67.2042891 C19.3179371,63.0124942 19.6729081,58.8169484 19.6708622,54.6234486 C19.713145,54.6514098 19.7557688,54.678348 19.7977106,54.7066502 C22.268868,56.3631816 24.6032882,58.2086216 27.0628519,59.8787925 C29.8749997,61.7886797 32.8740102,63.412476 35.8651779,65.0195637 C38.5866222,66.4817305 41.3135224,67.884565 44.1140765,69.1895352 C46.6912819,70.3901624 49.278376,71.6218197 51.549372,73.3526869 C51.8150035,73.5552352 52.1798632,73.4259998 52.3745688,73.1808277 C58.6995995,70.9510916 63.8785616,66.4786616 69.1246988,62.3066441 C68.9296523,62.559659 69.0326314,63.021019 69.4397739,62.9995366 C69.8441885,62.9780542 70.2424653,62.9224728 70.6250565,62.8147198 C70.5981183,63.0462523 70.5984593,63.2825586 70.6308534,63.5147731 C70.326349,63.8339401 69.8216832,63.94408 69.403629,63.9689723 C68.8573623,64.0020483 68.8542934,64.8545243 69.403629,64.8214483 C69.9458037,64.7890542 70.4688829,64.654363 70.9029637,64.3658851 C70.9674109,64.4889826 71.0393599,64.6073063 71.1246075,64.7150593 C71.1362011,64.7297218 71.1501817,64.7396106 71.1617754,64.7539322 C71.0311761,64.8255401 70.9073966,64.9094238 70.7887319,65.0031961 C70.2728135,65.1078802 69.756554,65.1982426 69.2290419,65.2272268 C68.6820933,65.257234 68.6797064,66.10971 69.2290419,66.0797028 C69.4588694,66.0670862 69.686992,66.0421939 69.9140916,66.0125277 C69.329975,66.9516152 68.9940995,68.1375798 68.8519065,69.0398404 C68.5341035,71.0503198 69.1922149,73.1978772 70.0610584,75.1906251 C69.8138404,75.2843975 69.5669634,75.3788518 69.3200863,75.4726242 C69.1028754,75.5551438 68.9562496,75.7566692 69.0224017,75.9967264 C69.0793471,76.2047305 69.3289521,76.3772717 69.5465039,76.294411 C69.8349818,76.1846121 70.1231187,76.0748132 70.4115966,75.9650143 C70.5401499,76.2401935 70.6704083,76.5116219 70.8016896,76.7779354 C70.2919089,76.8539762 69.7790594,76.9150135 69.2689378,76.9433157 C68.7223302,76.9736639 68.7196022,77.8261398 69.2689378,77.7957917 C69.9113637,77.7603287 70.5589044,77.677468 71.1996254,77.5755119 C71.3227229,77.819661 71.4447974,78.0604002 71.5620981,78.2936377 C71.7977225,78.7624995 72.6437197,78.6867996 72.7306722,78.140874 C72.8244446,77.5530065 72.9570898,76.9787787 73.0788234,76.4045509 C73.271483,77.1376802 73.3792359,77.8875181 73.3679833,78.6438348 C72.0152744,78.8474061 70.6554047,78.8937808 69.3463426,78.7597715 C68.799394,78.7038491 68.8048498,79.5566661 69.3463426,79.6122475 C70.6359682,79.7445518 71.9699227,79.7039739 73.2991032,79.5177932 C73.270801,79.7179545 73.235679,79.9184569 73.1886223,80.1189592 C73.1575922,80.2495586 73.163389,80.3675412 73.1937372,80.4701793 C72.2788599,80.6440844 71.3612548,80.7787757 70.4596762,80.874594 C69.9188654,80.9318803 69.9130686,81.7850383 70.4596762,81.7270699 C72.2000912,81.5425941 73.9739232,81.2346798 75.6891049,80.7535424 C73.909476,81.937802 72.0879053,83.0143087 70.0920886,83.8500761 L70.0920886,83.8500761 Z M81.6025602,53.9080507 C80.4970694,54.6214027 79.3956704,55.4288679 78.1466226,55.8118001 C79.2855305,55.0500276 80.4258024,54.289278 81.5609594,53.5213676 C81.574599,53.650262 81.5885796,53.7791564 81.6025602,53.9080507 L81.6025602,53.9080507 Z M73.482897,57.4427572 C73.1361098,57.6766766 72.7930735,57.9167338 72.4507191,58.159519 C72.2566956,57.0322047 72.0544883,55.9042085 71.9951559,54.7782582 C72.9253777,54.1181008 73.8583274,53.4623763 74.797074,52.8138126 C78.4487401,50.2915066 82.1812209,47.8865014 85.9126788,45.4849061 C89.4531821,43.2064083 92.9609502,40.8225444 95.9125631,37.7983006 C96.020316,37.787389 96.1226131,37.7631786 96.2184314,37.7273746 C96.2375269,38.0404038 96.2515075,38.353774 96.2624192,38.6668032 C96.2917444,39.4841571 96.2941313,40.3021931 96.3173187,41.1198881 C88.8411043,46.7830565 81.257478,52.1976429 73.482897,57.4427572 L73.482897,57.4427572 Z" id="Shape"></path>
            <path d="M15.17302,37.9489757 C18.3817396,37.2744967 21.5635209,36.5243179 24.8336188,36.2065148 C30.1612527,35.6885504 35.5659504,36.0735286 40.8809676,36.5427314 C41.7027545,36.6153623 41.6955937,35.3359664 40.8809676,35.2640174 C35.5533338,34.7937916 30.1731873,34.4466634 24.8336188,34.9278009 C21.4489481,35.2329873 18.1508891,36.0182881 14.8330526,36.7159545 C14.0262693,36.8854267 14.3682827,38.117766 15.17302,37.9489757 L15.17302,37.9489757 Z" id="Shape"></path>
            <path d="M49.823672,59.4562044 C49.7786613,60.2803781 51.0573753,60.2759453 51.102386,59.4562044 C51.422917,53.5935565 51.209798,47.5556397 49.8864143,41.8171124 C49.7012565,41.013739 48.4682352,41.3547294 48.653393,42.1570798 C49.9512024,47.7830803 50.1384062,53.7074473 49.823672,59.4562044 L49.823672,59.4562044 Z" id="Shape"></path>
        </g>
    </g>
</svg>